<svg width="36" height="32" viewBox="0 0 36 32" fill="none" xmlns="http://www.w3.org/2000/svg">
<g clip-path="url(#clip0_4437_42)">
<path d="M0.646 32.484C0.914 32.551 1.188 32.396 1.258 32.13C2.288 28.287 6.474 27.291 8.976 26.695C9.603 26.546 10.098 26.428 10.42 26.289C13.27 25.052 14.199 23.062 14.477 21.61C14.511 21.435 14.448 21.255 14.312 21.137C12.828 19.856 11.576 17.933 10.786 15.721C10.764 15.658 10.729 15.6 10.683 15.55C9.88 14.004 9.792 13.504 9.792 12.504C9.52602 9.89527 9.792 12.504 9.792 11.504C9.937 11.417 9.96 10.799 9.967 10.631C10.188 5.537 13.816 1.527 18.266 1.501C18.271 1.501 18.368 1.508 18.373 1.508C22.845 1.57 26.628 5.5383 26.757 10.7043C26.761 10.8473 26.647 11.109 26.757 11.201C26.757 12 26.757 12.3687 26.757 12.8247C26.5 14 26.5 14 26.015 15.03C25.978 15.077 25.95 15.131 25.931 15.188C25.131 17.724 23.695 19.963 21.993 21.333C21.849 21.449 21.781 21.635 21.815 21.816C22.093 23.267 23.022 25.256 25.872 26.495C26.209 26.641 26.732 26.755 27.395 26.898C29.872 27.434 34.017 28.333 35.034 32.13C35.094 32.353 35.296 32.5 35.516 32.5C35.559 32.5 35.602 32.494 35.646 32.483C35.913 32.411 36.071 32.137 36 31.87C34.825 27.483 30.129 26.466 27.607 25.92C27.022 25.793 26.517 25.684 26.271 25.576C24.411 24.768 23.265 23.537 22.86 21.911C24.587 20.428 26.032 18.14 26.858 15.574C27.3881 13.9272 27.5 14 27.573 12.3014C27.573 11.6324 27.5988 11.201 27.573 10.594C27.335 4.99 23.336 0.577 18.373 0.506L18.224 0.504C13.351 0.53 9.335 4.827 8.984 10.334C8.90943 11.504 8.976 11.685 8.976 12.504C8.976 13.687 9.27953 14.504 9.88 16.154C10.689 18.377 11.943 20.33 13.436 21.697C13.033 23.329 11.886 24.564 10.022 25.373C9.781 25.478 9.301 25.593 8.745 25.725C6.204 26.329 1.476 27.454 0.292 31.872C0.221 32.139 0.379 32.412 0.646 32.484Z" fill="black"/>
</g>
<defs>
<clipPath id="clip0_4437_42">
<rect width="36" height="32" fill="white"/>
</clipPath>
</defs>
</svg>
