<svg width="60" height="60" viewBox="0 0 60 60" fill="none" xmlns="http://www.w3.org/2000/svg">
<g clip-path="url(#clip0_4413_58)">
<path d="M58.7493 49.4968H1.24982C0.561346 49.4968 0.00107273 50.057 0.00107273 50.7474C0.00107273 51.4377 0.561346 51.9961 1.24982 51.9961H58.7494C59.4397 51.9961 60 51.4376 60 50.7474C60 50.0572 59.4396 49.4968 58.7493 49.4968ZM0.466073 24.702L14.6676 36.1705C14.8888 36.3511 15.1658 36.4494 15.4513 36.4489C15.5959 36.4489 15.7406 36.4232 15.8797 36.3738L55.9974 21.7714C56.1842 21.7046 56.3489 21.5947 56.4844 21.451C56.5265 21.4052 57.5574 20.3002 58.4802 18.8637C59.8607 16.7159 60.3039 14.916 59.7929 13.5135C59.2821 12.1118 57.7881 11.0168 55.3491 10.2598C53.7157 9.75356 52.218 9.56864 52.1557 9.56125C51.9603 9.53763 51.762 9.56052 51.577 9.62805L36.6285 15.0689L18.6188 8.08821C18.3359 7.97904 18.0231 7.9758 17.738 8.07907L10.3937 10.7533C9.97256 10.9053 9.66857 11.2696 9.58807 11.7081C9.55022 11.9238 9.56952 12.1457 9.64405 12.3516C9.71858 12.5575 9.84574 12.7404 10.0129 12.8819L19.8199 21.1865L15.334 22.8189L9.12494 19.9232C8.82443 19.7834 8.48079 19.7683 8.16916 19.8811L0.823143 22.5551C0.61527 22.631 0.431215 22.7607 0.2897 22.9308C0.148185 23.101 0.0542605 23.3056 0.017479 23.5238C-0.0192465 23.7423 0.00296022 23.9667 0.081811 24.1738C0.160662 24.3809 0.293305 24.5632 0.466073 24.702ZM18.1519 10.5893L40.441 19.2272L27.1075 24.0804L13.2722 12.3656L18.1519 10.5893ZM8.53713 22.4077L14.7481 25.3034C15.0486 25.4432 15.3922 25.4583 15.7038 25.3455L22.0171 23.0466L26.0454 26.4569C26.2712 26.6477 26.5573 26.7524 26.8529 26.7525C26.9985 26.7526 27.1429 26.7272 27.2796 26.6774L44.4217 20.4392C44.9105 20.2607 45.2383 19.7983 45.2438 19.2774C45.2493 18.7565 44.9306 18.2868 44.4455 18.0991L40.1681 16.4411L52.1448 12.0814C54.2103 12.3808 57.052 13.2926 57.4439 14.3683C57.6581 14.9579 57.2663 16.1215 56.3965 17.4829C55.8142 18.3938 55.1624 19.1702 54.8493 19.5291L15.6874 33.783L3.75822 24.1472L8.53713 22.4077Z" fill="#080808"/>
</g>
<defs>
<clipPath id="clip0_4413_58">
<rect width="60" height="60" fill="white"/>
</clipPath>
</defs>
</svg>
