<svg width="60" height="60" viewBox="0 0 60 60" fill="none" xmlns="http://www.w3.org/2000/svg">
<path d="M55.0744 26.8891L49.1963 24.4262L47.1762 9.72431C47.0785 9.0328 46.735 8.39961 46.2086 7.94069C45.6822 7.48176 45.008 7.22781 44.3097 7.22534H16.6369C15.9398 7.22814 15.2668 7.48139 14.7408 7.93893C14.2148 8.39647 13.8707 9.02782 13.7713 9.71786L11.7559 24.1227L4.91818 27.0191C4.68412 27.1196 4.47234 27.2656 4.29512 27.4486C4.1179 27.6316 3.97876 27.848 3.88577 28.0851C3.79278 28.3223 3.74779 28.5756 3.7534 28.8303C3.75901 29.0849 3.81511 29.336 3.91845 29.5688L10.426 44.0754C9.49541 43.6293 8.47214 43.4106 7.44046 43.4372C7.19182 43.4372 6.95336 43.536 6.77755 43.7118C6.60173 43.8876 6.50296 44.1261 6.50296 44.3747C6.50296 44.6234 6.60173 44.8618 6.77755 45.0376C6.95336 45.2134 7.19182 45.3122 7.44046 45.3122C8.44349 45.2869 9.43059 45.5665 10.2713 46.1142C11.407 46.7825 12.7008 47.1348 14.0185 47.1348C15.3363 47.1347 16.6301 46.7823 17.7658 46.114C18.6069 45.5666 19.5942 45.2871 20.5975 45.3122C21.6011 45.2869 22.5888 45.5665 23.4301 46.1142C24.5655 46.7837 25.8594 47.1368 27.1774 47.1368C28.4954 47.1367 29.7894 46.7836 30.9246 46.114C31.776 45.5898 32.7561 45.3122 33.7559 45.3122C34.7557 45.3122 35.7359 45.5899 36.5872 46.1142C37.7077 46.8214 39.0115 47.1834 40.3363 47.1552C43.7739 47.2006 43.8098 45.3782 46.9234 45.3121C50.0391 45.3786 50.0694 47.2011 53.5098 47.1551C53.7552 47.1502 53.9889 47.0492 54.1607 46.8739C54.3324 46.6987 54.4287 46.463 54.4286 46.2176C54.4286 45.9721 54.3324 45.7365 54.1606 45.5612C53.9888 45.386 53.7551 45.2851 53.5097 45.2802C51.7316 45.2747 51.1947 44.7123 49.9973 44.1152C50.004 44.0992 55.1205 31.7611 55.1261 31.7477L56.1053 29.3866C56.297 28.9185 56.2962 28.3936 56.1032 27.926C55.9102 27.4584 55.5405 27.0858 55.0744 26.8891ZM45.3195 9.98019L47.1889 23.5851C45.1624 22.8834 33.357 17.3927 31.4164 17.4058L31.4163 9.10034H44.3097C44.5556 9.10131 44.7929 9.19075 44.9784 9.3523C45.1638 9.51385 45.2849 9.73673 45.3195 9.98019ZM15.628 9.97791C15.663 9.73496 15.7841 9.51268 15.9693 9.35159C16.1545 9.19051 16.3915 9.10137 16.6369 9.10041H29.5413V17.3307C28.2741 17.3832 27.0264 17.6606 25.8563 18.1499L13.7682 23.2703L15.628 9.97791ZM26.5869 19.8766C27.6732 19.4194 28.8396 19.1827 30.0183 19.1803C31.1969 19.178 32.3643 19.41 33.4524 19.8629L54.3722 28.6707L53.7362 30.2043L32.5222 21.8925C31.1547 21.3545 29.6339 21.3553 28.2669 21.8948L6.40151 30.4849L5.64969 28.7458L26.5869 19.8766ZM46.9235 43.4372C45.5979 43.4091 44.2932 43.771 43.1716 44.4782C42.3192 45.0025 41.338 45.2802 40.3372 45.2802C39.3363 45.2802 38.3551 45.0025 37.5027 44.4782C36.3712 43.7971 35.0756 43.4372 33.755 43.4372C32.4344 43.4372 31.1387 43.7971 30.0073 44.4782C29.1563 45.0025 28.1764 45.2802 27.1769 45.2802C26.1774 45.2802 25.1975 45.0025 24.3466 44.4782C23.2104 43.8096 21.9161 43.4571 20.5978 43.4572C19.2796 43.4573 17.9853 43.8101 16.8493 44.4788C15.6914 45.1832 14.315 45.4374 12.9819 45.1931L7.15802 32.2017L28.9517 23.6399C29.8791 23.2741 30.9106 23.2736 31.8384 23.6385L53.0176 31.9369L48.2074 43.5358C47.7828 43.4681 47.3534 43.4352 46.9235 43.4372ZM52.7627 50.8997C49.6518 50.8343 49.6134 49.0101 46.1764 49.0569C42.7353 49.0102 42.7043 50.834 39.5892 50.8998C36.479 50.8342 36.4424 49.0101 33.0065 49.0569C29.5721 49.0101 29.5398 50.8337 26.4304 50.8998C23.3198 50.8336 23.2861 49.0097 19.8504 49.0569C16.4168 49.01 16.3813 50.8336 13.2724 50.8998C10.1603 50.8337 10.13 49.0098 6.69336 49.0569C6.4472 49.0606 6.21239 49.161 6.03963 49.3364C5.86688 49.5118 5.77006 49.7482 5.77007 49.9943C5.77008 50.2405 5.86693 50.4768 6.03969 50.6522C6.21246 50.8276 6.44728 50.928 6.69345 50.9318C7.69646 50.9064 8.68354 51.1861 9.5242 51.7338C10.6597 52.4027 11.9536 52.7555 13.2715 52.7555C14.5894 52.7554 15.8832 52.4026 17.0187 51.7336C17.8599 51.1862 18.8472 50.9066 19.8504 50.9318C20.854 50.9065 21.8417 51.1861 22.6831 51.7338C23.8183 52.4034 25.1124 52.7566 26.4304 52.7565C27.7485 52.7563 29.0424 52.403 30.1776 51.7331C31.029 51.2091 32.0092 50.9317 33.0089 50.9318C34.0087 50.9319 34.9888 51.2095 35.8401 51.7338C36.9768 52.4021 38.2715 52.7545 39.5901 52.7545C40.9087 52.7545 42.2034 52.402 43.3401 51.7336C44.1828 51.186 45.1717 50.9064 46.1764 50.9318C49.2921 50.9972 49.3222 52.8214 52.7627 52.7746C53.0088 52.7708 53.2436 52.6704 53.4163 52.495C53.589 52.3196 53.6858 52.0833 53.6858 51.8372C53.6858 51.591 53.589 51.3548 53.4163 51.1794C53.2436 51.004 53.0088 50.9035 52.7627 50.8997Z" fill="#231F20"/>
</svg>
