<svg width="60" height="60" viewBox="0 0 60 60" fill="none" xmlns="http://www.w3.org/2000/svg">
<g clip-path="url(#clip0_4414_68)">
<path d="M13.125 13.5938C13.1242 12.8481 12.8276 12.1332 12.3003 11.6059C11.7731 11.0786 11.0582 10.7821 10.3125 10.7812H7.5C6.75433 10.7821 6.03943 11.0786 5.51216 11.6059C4.98489 12.1332 4.68831 12.8481 4.6875 13.5938V16.4062C4.68831 17.1519 4.98489 17.8668 5.51216 18.3941C6.03943 18.9214 6.75433 19.2179 7.5 19.2188H10.3125C11.0582 19.2179 11.7731 18.9214 12.3003 18.3941C12.8276 17.8668 13.1242 17.1519 13.125 16.4062V13.5938ZM11.25 16.4062C11.2497 16.6548 11.1509 16.8931 10.9751 17.0688C10.7993 17.2446 10.5611 17.3435 10.3125 17.3438H7.5C7.25145 17.3435 7.01316 17.2446 6.8374 17.0688C6.66165 16.8931 6.56278 16.6548 6.5625 16.4062V13.5938C6.56278 13.3452 6.66165 13.1069 6.8374 12.9312C7.01316 12.7554 7.25145 12.6565 7.5 12.6562H10.3125C10.5611 12.6565 10.7993 12.7554 10.9751 12.9312C11.1509 13.1069 11.2497 13.3452 11.25 13.5938V16.4062ZM16.875 17.8125H29.0625C29.3111 17.8125 29.5496 17.7137 29.7254 17.5379C29.9012 17.3621 30 17.1236 30 16.875C30 16.6264 29.9012 16.3879 29.7254 16.2121C29.5496 16.0363 29.3111 15.9375 29.0625 15.9375H16.875C16.6264 15.9375 16.3879 16.0363 16.2121 16.2121C16.0363 16.3879 15.9375 16.6264 15.9375 16.875C15.9375 17.1236 16.0363 17.3621 16.2121 17.5379C16.3879 17.7137 16.6264 17.8125 16.875 17.8125ZM13.125 23.9062C13.1242 23.1606 12.8276 22.4457 12.3003 21.9184C11.7731 21.3911 11.0582 21.0946 10.3125 21.0938H7.5C6.75433 21.0946 6.03943 21.3911 5.51216 21.9184C4.98489 22.4457 4.68831 23.1606 4.6875 23.9062V26.7188C4.68831 27.4644 4.98489 28.1793 5.51216 28.7066C6.03943 29.2339 6.75433 29.5304 7.5 29.5312H10.3125C11.0582 29.5304 11.7731 29.2339 12.3003 28.7066C12.8276 28.1793 13.1242 27.4644 13.125 26.7188V23.9062ZM11.25 26.7188C11.2497 26.9673 11.1509 27.2056 10.9751 27.3813C10.7993 27.5571 10.5611 27.656 10.3125 27.6562H7.5C7.25145 27.656 7.01316 27.5571 6.8374 27.3813C6.66165 27.2056 6.56278 26.9673 6.5625 26.7188V23.9062C6.56278 23.6577 6.66165 23.4194 6.8374 23.2437C7.01316 23.0679 7.25145 22.969 7.5 22.9688H10.3125C10.5611 22.969 10.7993 23.0679 10.9751 23.2437C11.1509 23.4194 11.2497 23.6577 11.25 23.9062V26.7188ZM34.6875 23.4375C34.6875 23.1889 34.5887 22.9504 34.4129 22.7746C34.2371 22.5988 33.9986 22.5 33.75 22.5H16.875C16.6264 22.5 16.3879 22.5988 16.2121 22.7746C16.0363 22.9504 15.9375 23.1889 15.9375 23.4375C15.9375 23.6861 16.0363 23.9246 16.2121 24.1004C16.3879 24.2762 16.6264 24.375 16.875 24.375H33.75C33.9986 24.375 34.2371 24.2762 34.4129 24.1004C34.5887 23.9246 34.6875 23.6861 34.6875 23.4375ZM16.875 28.125H29.0625C29.3111 28.125 29.5496 28.0262 29.7254 27.8504C29.9012 27.6746 30 27.4361 30 27.1875C30 26.9389 29.9012 26.7004 29.7254 26.5246C29.5496 26.3488 29.3111 26.25 29.0625 26.25H16.875C16.6264 26.25 16.3879 26.3488 16.2121 26.5246C16.0363 26.7004 15.9375 26.9389 15.9375 27.1875C15.9375 27.4361 16.0363 27.6746 16.2121 27.8504C16.3879 28.0262 16.6264 28.125 16.875 28.125ZM13.125 34.2188C13.1242 33.4731 12.8276 32.7582 12.3003 32.2309C11.7731 31.7036 11.0582 31.4071 10.3125 31.4062H7.5C6.75433 31.4071 6.03943 31.7036 5.51216 32.2309C4.98489 32.7582 4.68831 33.4731 4.6875 34.2188V37.0312C4.68831 37.7769 4.98489 38.4918 5.51216 39.0191C6.03943 39.5464 6.75433 39.8429 7.5 39.8438H10.3125C11.0582 39.8429 11.7731 39.5464 12.3003 39.0191C12.8276 38.4918 13.1242 37.7769 13.125 37.0312V34.2188ZM11.25 37.0312C11.2497 37.2798 11.1509 37.5181 10.9751 37.6938C10.7993 37.8696 10.5611 37.9685 10.3125 37.9688H7.5C7.25145 37.9685 7.01316 37.8696 6.8374 37.6938C6.66165 37.5181 6.56278 37.2798 6.5625 37.0312V34.2188C6.56278 33.9702 6.66165 33.7319 6.8374 33.5562C7.01316 33.3804 7.25145 33.2815 7.5 33.2812H10.3125C10.5611 33.2815 10.7993 33.3804 10.9751 33.5562C11.1509 33.7319 11.2497 33.9702 11.25 34.2188V37.0312ZM16.875 38.4375H29.0625C29.3111 38.4375 29.5496 38.3387 29.7254 38.1629C29.9012 37.9871 30 37.7486 30 37.5C30 37.2514 29.9012 37.0129 29.7254 36.8371C29.5496 36.6613 29.3111 36.5625 29.0625 36.5625H16.875C16.6264 36.5625 16.3879 36.6613 16.2121 36.8371C16.0363 37.0129 15.9375 37.2514 15.9375 37.5C15.9375 37.7486 16.0363 37.9871 16.2121 38.1629C16.3879 38.3387 16.6264 38.4375 16.875 38.4375ZM10.3125 41.7188H7.5C6.75433 41.7196 6.03943 42.0161 5.51216 42.5434C4.98489 43.0707 4.68831 43.7856 4.6875 44.5312V47.3438C4.68831 48.0894 4.98489 48.8043 5.51216 49.3316C6.03943 49.8589 6.75433 50.1554 7.5 50.1562H10.3125C11.0582 50.1554 11.7731 49.8589 12.3003 49.3316C12.8276 48.8043 13.1242 48.0894 13.125 47.3438V44.5312C13.1242 43.7856 12.8276 43.0707 12.3003 42.5434C11.7731 42.0161 11.0582 41.7196 10.3125 41.7188ZM11.25 47.3438C11.2497 47.5923 11.1509 47.8306 10.9751 48.0063C10.7993 48.1821 10.5611 48.281 10.3125 48.2812H7.5C7.25145 48.281 7.01316 48.1821 6.8374 48.0063C6.66165 47.8306 6.56278 47.5923 6.5625 47.3438V44.5312C6.56278 44.2827 6.66165 44.0444 6.8374 43.8687C7.01316 43.6929 7.25145 43.594 7.5 43.5938H10.3125C10.5611 43.594 10.7993 43.6929 10.9751 43.8687C11.1509 44.0444 11.2497 44.2827 11.25 44.5312V47.3438Z" fill="black"/>
<path d="M1.875 53.4375V6.5625C1.87553 6.06539 2.07324 5.58878 2.42475 5.23727C2.77626 4.88575 3.25286 4.68804 3.74997 4.6875H11.25C11.2508 5.43317 11.5474 6.14807 12.0746 6.67534C12.6019 7.20261 13.3168 7.49919 14.0625 7.5H25.3125C26.0581 7.49919 26.773 7.20261 27.3003 6.67534C27.8276 6.14807 28.1242 5.43317 28.125 4.6875H31.1417C31.5428 3.99608 32.0396 3.36483 32.6175 2.8125H28.125C28.1242 2.06683 27.8276 1.35193 27.3003 0.824661C26.773 0.297391 26.0581 0.000813933 25.3125 0L14.0625 0C13.3168 0.000813933 12.6019 0.297391 12.0746 0.824661C11.5474 1.35193 11.2508 2.06683 11.25 2.8125H3.74997C2.75576 2.81364 1.8026 3.2091 1.09959 3.91211C0.396584 4.61513 0.00113517 5.56829 0 6.5625V53.4375C0.00113517 54.4317 0.396584 55.3849 1.09959 56.0879C1.8026 56.7909 2.75576 57.1864 3.74997 57.1875H21.1284L21.8141 55.3125H3.74997C3.25286 55.312 2.77626 55.1142 2.42475 54.7627C2.07324 54.4112 1.87553 53.9346 1.875 53.4375ZM13.125 2.8125C13.1253 2.56395 13.2241 2.32565 13.3999 2.1499C13.5756 1.97415 13.8139 1.87528 14.0625 1.875H25.3125C25.561 1.87528 25.7993 1.97415 25.9751 2.1499C26.1508 2.32565 26.2497 2.56395 26.25 2.8125V4.6875C26.2497 4.93605 26.1508 5.17434 25.9751 5.3501C25.7993 5.52585 25.561 5.62472 25.3125 5.625H14.0625C13.8139 5.62472 13.5756 5.52585 13.3999 5.3501C13.2241 5.17434 13.1253 4.93605 13.125 4.6875V2.8125Z" fill="black"/>
<path d="M15.9375 47.8125C15.9375 48.0611 16.0363 48.2996 16.2121 48.4754C16.3879 48.6512 16.6264 48.75 16.875 48.75H24.2141L24.7934 47.1661C24.8299 47.0663 24.8754 46.9713 24.9185 46.875H16.875C16.6264 46.875 16.3879 46.9738 16.2121 47.1496C16.0363 47.3254 15.9375 47.5639 15.9375 47.8125ZM27.502 44.4658L31.111 43.125H16.875C16.6264 43.125 16.3879 43.2238 16.2121 43.3996C16.0363 43.5754 15.9375 43.8139 15.9375 44.0625C15.9375 44.3111 16.0363 44.5496 16.2121 44.7254C16.3879 44.9012 16.6264 45 16.875 45H26.4841C26.7999 44.7804 27.1418 44.601 27.502 44.4658ZM32.3682 33.8979C31.9934 33.5758 31.6569 33.2116 31.3654 32.8125H16.875C16.6264 32.8125 16.3879 32.9113 16.2121 33.0871C16.0363 33.2629 15.9375 33.5014 15.9375 33.75C15.9375 33.9986 16.0363 34.2371 16.2121 34.4129C16.3879 34.5887 16.6264 34.6875 16.875 34.6875H32.6013C32.485 34.4373 32.4064 34.1711 32.3682 33.8979Z" fill="black"/>
<path d="M55.9454 47.8102C55.8097 47.4457 55.5964 47.115 55.3203 46.841C55.0441 46.5671 54.7118 46.3564 54.3462 46.2236L47.9846 43.8606C47.8703 43.8223 47.766 43.7587 47.6797 43.6744C47.5935 43.5901 47.5273 43.4875 47.4863 43.374L46.8023 40.3589C47.3525 39.4919 47.6759 38.1972 47.7871 36.4192L47.7686 36.4179C47.8056 36.0672 47.8146 35.465 47.8147 34.3575C47.886 34.3012 47.9347 34.2612 47.9471 34.2508C48.0518 34.1629 48.1359 34.0531 48.1937 33.9292C48.2514 33.8053 48.2813 33.6702 48.2812 33.5335V32.9734C48.845 32.6323 49.8122 31.9099 50.0846 30.8386C50.1648 30.411 50.1476 29.9708 50.0344 29.5507C49.9211 29.1306 49.7147 28.7414 49.4305 28.412C48.0578 26.441 46.063 24.988 43.7659 24.2862C43.3433 24.1562 42.9109 24.0606 42.4729 24.0001C41.2058 23.8022 39.9098 23.9068 38.6909 24.3054C36.436 25.0534 34.474 26.4929 33.0837 28.4193C32.6887 28.9893 32.0915 29.8503 32.4561 30.9119C32.8127 31.7601 33.43 32.4729 34.2187 32.9468V33.5335C34.2188 33.6702 34.2487 33.8052 34.3063 33.9291C34.364 34.053 34.4481 34.1628 34.5527 34.2508C34.5649 34.2611 34.6126 34.3003 34.6817 34.3548C34.6438 35.0359 34.6487 35.7186 34.6962 36.3991L34.6898 36.3995C34.735 37.5335 34.8995 39.1227 35.7013 40.3432L35.0242 43.3328C34.987 43.4547 34.9215 43.566 34.8331 43.6578C34.7447 43.7495 34.6358 43.819 34.5154 43.8607L28.1541 46.2236C27.7884 46.3564 27.456 46.567 27.1798 46.841C26.9036 47.115 26.6902 47.4457 26.5544 47.8102L22.557 58.7407C22.5053 58.8824 22.4885 59.0344 22.508 59.1839C22.5276 59.3335 22.5829 59.4761 22.6693 59.5997C22.7557 59.7232 22.8707 59.8242 23.0044 59.8939C23.1381 59.9636 23.2867 60 23.4375 60H59.0625C59.2133 60 59.3619 59.9636 59.4956 59.8939C59.6293 59.8242 59.7443 59.7233 59.8307 59.5997C59.9171 59.4761 59.9725 59.3335 59.992 59.1839C60.0116 59.0344 59.9947 58.8823 59.943 58.7407L55.9454 47.8102ZM47.0174 45.5859L48.8754 46.2827L44.1545 50.6667L42.6068 48.7825L47.0174 45.5859ZM36.5674 35.5839C37.8831 36.3261 39.3278 36.8117 40.8247 37.0148C40.9181 37.0258 41.0843 37.0313 41.2502 37.0313C41.4125 37.0313 41.5743 37.0258 41.6661 37.0152C43.1644 36.8136 44.6107 36.3287 45.9277 35.5863C45.9247 35.9305 45.9213 36.1838 45.9183 36.2714C45.9171 36.2814 45.9164 36.292 45.9158 36.302C45.7848 38.3968 45.3541 39.2102 45.1092 39.5087C44.6276 40.0951 44.2355 40.6339 43.8895 41.109C42.7991 42.6068 42.3663 43.125 41.2374 43.125C40.1433 43.125 39.7105 42.6068 38.6199 41.109C38.2741 40.6339 37.882 40.0951 37.4004 39.5087C36.8983 38.8966 36.6243 37.8548 36.5634 36.3245L36.5627 36.3103C36.5618 36.229 36.5637 35.9498 36.5674 35.5839ZM36.0937 33.0711V33.0441C37.5254 32.742 38.9764 32.5398 40.4361 32.439C41.0245 32.387 41.6164 32.39 42.2042 32.4481C43.6168 32.5488 45.0208 32.7465 46.4062 33.0398V33.0725C44.9514 34.1567 43.2544 34.8703 41.4619 35.1517C41.3848 35.1576 41.1072 35.1576 41.0422 35.1526C39.2491 34.8677 37.5514 34.1536 36.0937 33.0711ZM35.1796 31.3339C34.7709 31.0877 34.4413 30.7297 34.2295 30.3021C34.1773 30.1506 34.3604 29.8686 34.6296 29.4804C35.7832 27.8889 37.409 26.7015 39.2761 26.087C40.5548 25.6945 41.9212 25.6902 43.2024 26.0747C45.1022 26.6524 46.7528 27.8517 47.8894 29.48C48.2252 29.9648 48.317 30.1822 48.2675 30.3758C48.0784 30.7875 47.7598 31.1259 47.3602 31.3394C45.7137 30.9484 44.0377 30.694 42.3493 30.5786C41.9014 30.5443 41.5775 30.5269 41.2576 30.5269C40.9651 30.5269 40.6757 30.5411 40.2976 30.5695C38.5732 30.6805 36.8612 30.9362 35.1796 31.3339ZM35.4826 45.5859L39.8932 48.7825L38.3455 50.6667L33.6246 46.2827L35.4826 45.5859ZM40.3125 58.125H31.875V54.375C31.875 54.1264 31.7762 53.8879 31.6004 53.7121C31.4246 53.5363 31.1861 53.4375 30.9375 53.4375C30.6889 53.4375 30.4504 53.5363 30.2746 53.7121C30.0988 53.8879 30 54.1264 30 54.375V58.125H24.7785L28.3154 48.4543C28.3582 48.3446 28.4243 48.2455 28.5091 48.1639C28.5939 48.0822 28.6954 48.02 28.8066 47.9814L31.5863 46.9489L37.7996 52.7184C37.973 52.8794 38.2009 52.9688 38.4375 52.9688C38.4583 52.9688 38.4796 52.9678 38.5007 52.9665C38.6283 52.9578 38.7527 52.9232 38.8664 52.8647C38.9801 52.8062 39.0807 52.7251 39.1619 52.6263L40.3125 51.2259V58.125ZM36.7089 44.1591C36.7622 44.039 36.8068 43.9152 36.8424 43.7888L37.1773 42.3126C38.277 43.822 39.1801 45 41.2724 45C43.3263 45 44.229 43.8268 45.3255 42.3221L45.6679 43.8295C45.6997 43.9431 45.7394 44.0543 45.7866 44.1623L41.25 47.4503L36.7089 44.1591ZM52.5 58.125V54.375C52.5 54.1264 52.4012 53.8879 52.2254 53.7121C52.0496 53.5363 51.8111 53.4375 51.5625 53.4375C51.3139 53.4375 51.0754 53.5363 50.8996 53.7121C50.7238 53.8879 50.625 54.1264 50.625 54.375V58.125H42.1875V51.2259L43.3381 52.6264C43.4193 52.7251 43.5199 52.8062 43.6336 52.8647C43.7473 52.9232 43.8717 52.9578 43.9993 52.9665C44.0206 52.9678 44.0417 52.9688 44.0625 52.9688C44.2991 52.9688 44.527 52.8794 44.7004 52.7184L50.9137 46.9489L53.6936 47.9814C53.8047 48.02 53.9061 48.0822 53.9908 48.1638C54.0755 48.2453 54.1415 48.3443 54.1843 48.4538L57.7215 58.125H52.5ZM37.5 17.2884V22.7416C37.6975 22.6657 37.8981 22.592 38.1058 22.5238C38.5212 22.3885 38.9453 22.2812 39.375 22.2025V17.2884C38.7522 17.3622 38.1228 17.3622 37.5 17.2884ZM16.875 14.0625H31.7738C31.3244 13.4881 30.9514 12.8578 30.6642 12.1875H16.875C16.6264 12.1875 16.3879 12.2863 16.2121 12.4621C16.0363 12.6379 15.9375 12.8764 15.9375 13.125C15.9375 13.3736 16.0363 13.6121 16.2121 13.7879C16.3879 13.9637 16.6264 14.0625 16.875 14.0625ZM45 8.90625C45 7.60831 44.6151 6.33952 43.894 5.26032C43.1729 4.18113 42.148 3.33999 40.9489 2.84329C39.7497 2.34659 38.4302 2.21663 37.1572 2.46985C35.8842 2.72307 34.7149 3.34808 33.7971 4.26586C32.8793 5.18365 32.2543 6.35297 32.0011 7.62597C31.7479 8.89897 31.8778 10.2185 32.3745 11.4176C32.8712 12.6168 33.7124 13.6417 34.7916 14.3628C35.8708 15.0839 37.1396 15.4688 38.4375 15.4688C40.1774 15.4668 41.8454 14.7748 43.0757 13.5445C44.306 12.3142 44.998 10.6461 45 8.90625ZM38.4375 13.5938C37.5104 13.5938 36.6041 13.3188 35.8333 12.8038C35.0624 12.2887 34.4616 11.5566 34.1068 10.7001C33.752 9.84355 33.6592 8.90105 33.8401 7.99177C34.0209 7.08248 34.4674 6.24725 35.1229 5.59169C35.7785 4.93613 36.6137 4.48969 37.523 4.30882C38.4323 4.12795 39.3748 4.22078 40.2313 4.57557C41.0879 4.93035 41.8199 5.53116 42.335 6.30202C42.8501 7.07287 43.125 7.97915 43.125 8.90625C43.1236 10.149 42.6293 11.3405 41.7505 12.2192C40.8717 13.098 39.6803 13.5923 38.4375 13.5938Z" fill="black"/>
<path d="M39.6504 6.83623L37.6513 8.83057L37.4454 8.93351L37.2279 8.71444C37.1411 8.62706 37.038 8.55762 36.9244 8.5101C36.8109 8.46257 36.689 8.43787 36.5659 8.43743C36.4428 8.43698 36.3208 8.46079 36.2069 8.50749C36.0929 8.5542 35.9893 8.62288 35.902 8.70963C35.8146 8.79637 35.7451 8.89948 35.6976 9.01306C35.6501 9.12664 35.6254 9.24847 35.6249 9.37159C35.6245 9.49471 35.6483 9.61672 35.695 9.73064C35.7417 9.84456 35.8104 9.94817 35.8971 10.0355L36.828 10.973C36.9149 11.0606 37.0182 11.1301 37.132 11.1776C37.2457 11.2251 37.3678 11.2497 37.4911 11.25H37.4934C37.7416 11.25 37.9798 11.1516 38.1555 10.9762L40.9747 8.16373C41.15 7.98797 41.2484 7.74985 41.2484 7.5016C41.2484 7.25335 41.1499 7.01524 40.9746 6.83949C40.7993 6.66374 40.5614 6.5647 40.3132 6.56409C40.0649 6.56348 39.8265 6.66135 39.6504 6.83623Z" fill="black"/>
</g>
<defs>
<clipPath id="clip0_4414_68">
<rect width="60" height="60" fill="white"/>
</clipPath>
</defs>
</svg>
