<svg id="SvgjsSvg1018" width="256" height="256" xmlns="http://www.w3.org/2000/svg" version="1.1" xmlns:xlink="http://www.w3.org/1999/xlink" xmlns:svgjs="http://svgjs.com/svgjs"><defs id="SvgjsDefs1019"></defs><g id="SvgjsG1020"><svg xmlns="http://www.w3.org/2000/svg" enable-background="new 0 0 72 72" viewBox="0 0 72 72" width="256" height="256"><path d="M68.5549927,37.3112106l-0.0200195-12.2299786c0-0.1600342-0.0700073-0.2999878-0.1900024-0.4000244
		c-4.2179337-3.2757893-6.4670067-5.0480022-6.5700073-5.1099854L41.164978,7.5912418
		c-0.1599731-0.0900269-0.3499756-0.0900269-0.5100098,0l-3.0999756,1.789978L35.2249756,8.041254
		c-0.1499634-0.0900269-0.3499756-0.0900269-0.5,0L3.713501,25.9563541
		c-0.0058594,0.0030518-0.0126953,0.0016479-0.0184937,0.0048828c-0.1500244,0.0899658-0.25,0.2600098-0.2399902,0.4299927
		c0.0159223,6.0698833-0.0015602,19.5600185-0.0100098,26.0800152c0,0.1799927,0.0999756,0.3499756,0.2600098,0.4400024
		l19.039978,10.9399414c0.1498661,0.0937386,0.34902,0.0944366,0.5,0l2.5-1.4499512l3.2299805,1.8799438
		c0.6306667,0.394928,1.7281857,0.1340561,2.4511719-0.2830811c1.7734642-1.0239143,3.2289085-3.4618568,3.1705933-5.6049805
		c2.588974,1.4619484,2.1473732,1.3013725,2.4328613,1.3537598c0.7887115,0.3008194,1.566227,0.0988731,2.2974243-0.322998
		c1.7895508-1.0332031,3.1865234-3.4501953,3.1806641-5.5024414c-0.0010986-0.4109497-0.0756836-0.7694702-0.1856079-1.0971069
		c1.4706497-0.856144-5.3275032,3.1014404,14.3829346-8.3731079c3.3933182,1.9693565,3.2998276,1.9500122,3.3999634,1.9500122
		c0.0100098,0.0100098,0.0200195,0.0100098,0.0300293,0.0100098c0.7706795,0.3014832,1.5934525,0.0794563,2.3200073-0.3300171
		c1.789978-1.0300293,3.1799927-3.4500122,3.1799927-5.5c0-0.4400024-0.0700073-0.8400269-0.1900024-1.1799927l2.8599854-1.6500244
		C68.4649658,37.6612473,68.5549927,37.4912033,68.5549927,37.3112106z M22.4550171,37.6567917
		c0.0004559,0.1275711,0.0450058,13.405838,0.0599976,17.8744507c-0.8557663-0.4939651,4.5665264,2.6359062-18-10.3900146
		c-0.0753365-22.4475746-0.057106-17.0155964-0.0599976-17.8771343C4.567523,27.329052,22.5566063,37.7155647,22.4550171,37.6567917
		z M23.5249023,55.5355759c-0.000412-0.1043282-0.0426311-10.8418465-0.0421753-10.7407837l1.0522461-0.6035767l7.5100098,4.3400269
		c0.1384544,0.0691605,0.2516861,0.0640945,0.3800049,0l7.5-4.3600464c0.1099854-0.0699463,0.1799927-0.1899414,0.1900024-0.3199463
		L40.125,41.5112228l2.0299683,1.1699829c0.1050682,0.070118,0.2823639,0.0651627,0.3800049,0
		c0.1028786-0.0597153,7.5649986-4.3911896,7.460022-4.3299561c0.1163712-0.1111069,0.2199707-0.1119957,0.2199707-0.3500366
		v-1.1499634l2.8253174,1.637207C50.1014099,40.1892624,54.3531303,37.7329636,23.5249023,55.5355759z M24.3349609,37.1512375
		l-0.0199585,6l-0.8360596,0.4845581l-0.0195923-5.980896L24.3349609,37.1512375z M50.6749878,21.9412174l2.8112183-1.626709
		l0.0107422,3.2692261L50.6749878,21.9412174z M49.6768799,22.5123234l3.7280884,2.1731567
		c0.0421524,17.3615894,0.0284309,11.708868,0.03125,12.8706036l-3.2112427-1.8648682l0.0200195-6.6799908
		c0-0.1300049-0.0700073-0.2600098-0.1900024-0.3200073l-5.5300293-3.2000122
		C44.6263199,25.4326,50.0199432,22.313961,49.6768799,22.5123234z M49.4649658,37.7812424
		c-2.8062592,1.6396904-6.825386,3.9797516-6.7399902,3.9299927c0.0468674-15.8725605-0.0040741,1.6770439,0.0200195-8.1199951
		c2.0271416-1.186882,6.6459084-3.8647575,6.75-3.92523C49.494606,29.77034,49.4642258,37.8823051,49.4649658,37.7812424z
		 M41.9669189,41.7065964L40.125,40.6412277l0.0094604-5.4793701l1.8605347-1.0765381
		C41.9760399,37.0504189,41.9791222,38.3607407,41.9669189,41.7065964z M39.3649902,43.631218l-6.7484741,3.9191284
		l0.0184937-8.0491333l6.7498169-3.9056396C39.3845787,35.6959,39.3636627,44.1694069,39.3649902,43.631218z M46.9813843,30.2551823
		l-5.3555908-3.0935059l2.1436768-1.237915l5.34552,3.0874634L46.9813843,30.2551823z M39.1450195,28.6012516l5.3610229,3.0970459
		c-0.668541,0.3895054-2.26054,1.3170757-2.1323242,1.2421856c-0.1013603-0.0585899-5.7177811-3.3052578-5.3746948-3.1069317
		C37.2661667,29.6801186,39.2464333,28.5427475,39.1450195,28.6012516z M41.4159546,33.2564621l-1.8309937,1.0647583
		l-4.3999634-2.5299664c0.0011063-0.100687,0.011116-1.0107212,0.0100098-0.9100342
		c0.1001663-0.0581913,1.1501541-0.6681767,1.0499878-0.6099854C36.3463898,30.329771,41.7591515,33.4545937,41.4159546,33.2564621z
		 M33.6578979,31.7629337c0.9396706,0.5466022,2.9957199,1.7429066,5.3534546,3.0962505
		c-0.1000137,0.0581474-2.2742462,1.3222389-2.1363525,1.2420654c-0.1013489-0.0586128-5.7030258-3.298439-5.3599854-3.1000366
		C31.7729816,32.8521461,33.7864609,31.6886425,33.6578979,31.7629337z M34.3977661,37.5371017l-2.1334229,1.2437744
		c-2.1466198-1.2369194-5.5665646-3.2075539-5.3793335-3.0996704l2.1399536-1.2399902L34.3977661,37.5371017z
		 M31.8845215,39.4309006c-0.0002422,0.1003265-0.0208378,8.663784-0.0195313,8.1203003
		c-0.101181-0.0583267-7.2474308-4.1779175-6.7999878-3.9199829c0.000433-0.1000328,0.0319767-7.3837166,0.0299683-6.9199829
		l1.0400391-0.6000366C26.2364006,36.1697426,32.2662621,39.6513138,31.8845215,39.4309006z M40.9049683,8.6012516
		l19.6173096,11.3984375l-6.0257568,3.4760742l-0.0131836-4.0184937c0-0.0021973,0.0016479-0.0038452,0.0016479-0.0060425
		c0-0.1799927-0.0999756-0.3499756-0.25-0.4400024L38.5549927,9.961237L40.9049683,8.6012516z M34.9749756,9.0512028
		c21.5277443,12.4313927,15.3895378,8.8868294,18.0065918,10.3980713
		c-6.6212273,3.8235836-23.5363789,13.5915928-30.0249634,17.3385601
		c-4.6731491-2.6836433-10.4740934-6.0490513-18.0015869-10.3966045L34.9749756,9.0512028z M4.4550171,52.1912155
		l0.039978-5.8699951c1.8353829,1.0631256-6.6487665-3.8512192,17.9500122,10.3973389
		c0.028513,3.746727,0.0402813,5.881218,0.039978,5.8326416L4.4550171,52.1912155z M23.4949951,62.5612106
		c-0.0003586-0.102684-0.0224686-6.2162819-0.0200195-5.8200073c0.101593-0.0587425,30.0781212-17.3915405,29.9656982-17.326416
		l0.0137939,5.8203735l-11.618103,6.7248535c-0.8153343-0.8614998-1.9936676-0.7453156-3.0283813-0.1469727
		c-1.2208252,0.7052612-2.2460938,2.060791-2.7784424,3.5029907l-2.0970459,1.2157593
		c-0.8203735-0.8635902-1.9989624-0.7386093-3.0253906-0.1445313c-1.2180176,0.7036133-2.241333,2.0544434-2.7747803,3.4929199
		C20.2657547,64.4384842,28.6586227,59.5760574,23.4949951,62.5612106z M27.7858276,61.2254562
		c-0.0790977,0.5975609-0.0599823,0.7740364,0.0007935,1.2033691l-1.041626-0.607605L27.7858276,61.2254562z M30.9261475,63.1318893
		c-1.2485371,0.7223701-2.1882267,0.2677689-2.1923828-1.2451172c-0.0048828-1.671875,1.2192383-3.7939453,2.6733398-4.6333008
		c1.2700195-0.7357483,2.1955948-0.2522583,2.199707,1.2451172C33.6116943,60.1685104,32.3841553,62.2900925,30.9261475,63.1318893z
		 M35.6861572,56.6584396c-0.0772362,0.5905304-0.0606422,0.7683449,0.0020752,1.2046509l-1.0432129-0.6018677
		L35.6861572,56.6584396z M38.8270264,58.5576706c-1.2677803,0.7323418-2.1882782,0.2483292-2.1923828-1.2451172
		c-0.0048828-1.671875,1.2192383-3.7939453,2.6733398-4.6333008c1.2659721-0.7308273,2.1955795-0.2580566,2.199707,1.2451172
		C41.5125732,55.5942917,40.2850342,57.7158737,38.8270264,58.5576706z M57.6950073,43.8712082l1.1199951-0.6399536
		c-0.0475769,0.3960991-0.079052,0.8991585-0.0100098,1.289978L57.6950073,43.8712082z M64.6350098,40.5812302
		c0,1.6699829-1.2300415,3.789978-2.6799927,4.6300049c-1.9077759,1.0901871-2.6223946-0.5906525-1.9400024-2.6799927
		c0.3687935-1.1806755,1.3082809-2.5415916,2.4199829-3.1900024C63.7253113,38.5975685,64.6350098,39.1064262,64.6350098,40.5812302
		z M64.9049683,38.5612106c-0.5654373-0.6168976-1.7234268-0.8287048-2.9699707-0.0899658
		c-1.1900024,0.6900024-2.2000122,1.9899902-2.7399902,3.3899536c-3.3333321,1.9200058-4.6350174,2.6696014-4.6340942,2.6690674
		c-0.0082397-5.6492195,0.0031815-1.4228859-0.0606079-19.8986797c0.1000137-0.0577927,7.4406509-4.2996044,6.9746704-4.0303345
		l6.0599976,4.7199707l0.0200195,11.7100201L64.9049683,38.5612106z" fill="#000000" class="color000 svgShape"></path><path d="M31.1662598 59.2321701c-.5001831.2887573-.9066772.9915161-.9050293 1.5689087.0016479.5774536.4107666.8079224.9109497.519165.5024414-.2901001.9089966-.9915161.9073486-1.5689087C32.0778809 59.1738815 31.6687012 58.94207 31.1662598 59.2321701zM39.0670166 54.6579514c-.5001831.2888184-.9066772.9915161-.9050293 1.5689697.0016479.5773926.4107666.8078613.9109497.519104.5025024-.2901001.9089966-.9915161.9073486-1.5689087S39.569519 54.3678513 39.0670166 54.6579514zM62.1923218 41.3162766c-.5001831.2887573-.9066772.9915161-.9050293 1.5689087.0016479.5774536.4107666.8079224.9109497.519165.5025024-.2901001.9089966-.9915161.9073486-1.5689087C63.1039429 41.257988 62.6948242 41.0261765 62.1923218 41.3162766zM19.7837524 56.9998093c-.519043-.2996826-.9472656-.0612183-.9489746.5352173-.001709.5963745.4238281 1.3277588.9428711 1.6274414.5189819.2996216.937561.055603.939209-.5408325C20.7185669 58.0252609 20.3027954 57.2994308 19.7837524 56.9998093zM7.1757202 49.72155c-.519043-.2996216-.9472656-.0611572-.9489746.5352783-.0016479.5963745.4238281 1.3277588.9428711 1.6273804.5189819.2996826.937561.055603.939209-.5407715C8.1105347 50.7470016 7.6947632 50.0212326 7.1757202 49.72155zM33.4837646 13.2358952l1.4921875-.8618164 2.4624023 1.4208984c.1787453.1034069.4085426.0423775.512207-.137207.1035156-.1791992.0419922-.4086914-.137207-.512207l-2.6499023-1.5292969c-.1162109-.0673828-.2587891-.0673828-.375 0l-1.6796875.9702148c-.1791992.1035156-.2407227.3330078-.137207.512207C33.0750732 13.2773991 33.3045654 13.3398991 33.4837646 13.2358952zM30.5643311 14.921442l1.4599609-.8427734c.1791992-.1035156.2407227-.3330078.137207-.512207-.1035156-.1787109-.3325195-.2412109-.512207-.137207l-1.4599609.8427734c-.1791992.1035156-.2407227.3330078-.137207.512207C30.1557884 14.9638214 30.3855915 15.0248451 30.5643311 14.921442zM65.2669678 26.2520084l-3.7670898-2.9365234c-.1206055-.09375-.2866211-.1049805-.4179688-.0288086l-4.3583984 2.5161133c-.1162109.0668945-.1879883.1914063-.1875.3256836l.0234375 8.8891582c.0010605.2903595.3157539.4668045.5625.3237305l8.1098633-4.682127c.1162109-.0668945.1879883-.1914063.1875-.3256836l-.0078125-3.7866211C65.411499 26.4316959 65.3577881 26.3228092 65.2669678 26.2520084zM57.3074951 34.3682175l-.0209961-8.0244122 3.9516602-2.28125 3.4238281 2.6689453.0068359 3.3867188L57.3074951 34.3682175zM60.789917 35.3618698l-2.3344727 1.3476563c-.1791992.1035156-.2407227.3330078-.137207.512207.1036644.1795883.3334694.240612.512207.137207l2.3344727-1.3476563c.1791992-.1035156.2407227-.3330078.137207-.512207C61.1986084 35.3203659 60.9696045 35.2578659 60.789917 35.3618698z" fill="#000000" class="color000 svgShape"></path></svg></g></svg>